<svg width="40" style="margin: 0 auto;display: block" viewBox="0 0 151 166" fill="none" xmlns="http://www.w3.org/2000/svg">
    <g filter="url(#filter0_d_774_17)">
        <path fill-rule="evenodd" clip-rule="evenodd" d="M68.467 111.25C65.447 116.337 62.082 122.194 60.988 124.264L59 128.027L66.631 145.49C70.828 155.094 74.487 162.951 74.762 162.948C75.465 162.943 89.972 129.836 90.092 127.962C90.208 126.145 75.961 102 74.772 102C74.323 102 71.486 106.163 68.467 111.25Z" fill="url(#paint0_linear_774_17)"/>
    </g>
    <g filter="url(#filter1_d_774_17)">
        <path fill-rule="evenodd" clip-rule="evenodd" d="M63.5788 28.5721L52.7808 50.1971L44.0898 49.5891C39.3098 49.2541 29.9988 48.7231 23.3988 48.4081C16.7988 48.0941 10.3868 47.6281 9.14879 47.3731C5.97278 46.7191 6.29779 47.8641 11.3408 55.0861C13.7838 58.5851 18.3238 65.1391 21.4308 69.6501C24.5368 74.1611 27.6478 78.3251 28.3438 78.9021C29.6318 79.9721 31.0408 79.3971 56.3988 67.4661C74.6238 58.8901 74.9578 58.7971 79.4898 61.0261C81.6398 62.0831 91.7238 66.7241 101.899 71.3381C116.61 78.0091 120.664 79.4771 121.693 78.5081C122.903 77.3681 143.829 47.5371 143.534 47.3721C143.46 47.3311 138.449 47.6161 132.399 48.0071C126.349 48.3971 115.764 49.0221 108.877 49.3961L96.355 50.0751L85.8768 28.5641C80.1138 16.7321 75.1688 7.02806 74.8878 7.00006C74.6068 6.97106 69.5178 16.6791 63.5788 28.5721Z" fill="url(#paint1_linear_774_17)"/>
        <path fill-rule="evenodd" clip-rule="evenodd" d="M63.5788 28.5721L52.7808 50.1971L44.0898 49.5891C39.3098 49.2541 29.9988 48.7231 23.3988 48.4081C16.7988 48.0941 10.3868 47.6281 9.14879 47.3731C5.97278 46.7191 6.29779 47.8641 11.3408 55.0861C13.7838 58.5851 18.3238 65.1391 21.4308 69.6501C24.5368 74.1611 27.6478 78.3251 28.3438 78.9021C29.6318 79.9721 31.0408 79.3971 56.3988 67.4661C74.6238 58.8901 74.9578 58.7971 79.4898 61.0261C81.6398 62.0831 91.7238 66.7241 101.899 71.3381C116.61 78.0091 120.664 79.4771 121.693 78.5081C122.903 77.3681 143.829 47.5371 143.534 47.3721C143.46 47.3311 138.449 47.6161 132.399 48.0071C126.349 48.3971 115.764 49.0221 108.877 49.3961L96.355 50.0751L85.8768 28.5641C80.1138 16.7321 75.1688 7.02806 74.8878 7.00006C74.6068 6.97106 69.5178 16.6791 63.5788 28.5721Z" fill="url(#paint2_linear_774_17)" fill-opacity="0.2"/>
    </g>
    <g filter="url(#filter2_dd_774_17)">
        <path fill-rule="evenodd" clip-rule="evenodd" d="M84.5519 74.75C84.9579 75.163 93.6529 79.377 103.874 84.116L122.458 92.731L132.753 107.616L143.047 122.5L139.347 122.827C137.312 123.007 130.673 122.67 124.594 122.077C118.515 121.485 110.865 120.993 107.594 120.985C104.323 120.976 101.137 120.639 100.513 120.235C99.889 119.831 96.124 114.1 92.1459 107.5C88.1679 100.9 84.0649 94.306 83.0299 92.846C80.6669 89.515 80.2149 74 82.4799 74C83.2139 74 84.1459 74.337 84.5519 74.75Z" fill="url(#paint3_linear_774_17)"/>
    </g>
    <g filter="url(#filter3_dd_774_17)">
        <path fill-rule="evenodd" clip-rule="evenodd" d="M65.495 74.75C65.089 75.163 56.394 79.377 46.173 84.116L27.589 92.731L17.294 107.616L7 122.5L10.7 122.827C12.735 123.007 19.374 122.67 25.453 122.077C31.532 121.485 39.182 120.993 42.453 120.985C45.724 120.976 48.91 120.639 49.534 120.235C50.158 119.831 53.923 114.1 57.901 107.5C61.879 100.9 65.982 94.306 67.017 92.846C69.38 89.515 69.832 74 67.567 74C66.833 74 65.901 74.337 65.495 74.75Z" fill="url(#paint4_linear_774_17)"/>
    </g>
    <defs>
        <filter id="filter0_d_774_17" x="56" y="99" width="37.0927" height="66.948" filterUnits="userSpaceOnUse" color-interpolation-filters="sRGB">
            <feFlood flood-opacity="0" result="BackgroundImageFix"/>
            <feColorMatrix in="SourceAlpha" type="matrix" values="0 0 0 0 0 0 0 0 0 0 0 0 0 0 0 0 0 0 127 0" result="hardAlpha"/>
            <feOffset/>
            <feGaussianBlur stdDeviation="1.5"/>
            <feComposite in2="hardAlpha" operator="out"/>
            <feColorMatrix type="matrix" values="0 0 0 0 0.282353 0 0 0 0 0.901961 0 0 0 0 0.952941 0 0 0 1 0"/>
            <feBlend mode="normal" in2="BackgroundImageFix" result="effect1_dropShadow_774_17"/>
            <feBlend mode="normal" in="SourceGraphic" in2="effect1_dropShadow_774_17" result="shape"/>
        </filter>
        <filter id="filter1_d_774_17" x="0.0898438" y="0" width="150.447" height="86.2691" filterUnits="userSpaceOnUse" color-interpolation-filters="sRGB">
            <feFlood flood-opacity="0" result="BackgroundImageFix"/>
            <feColorMatrix in="SourceAlpha" type="matrix" values="0 0 0 0 0 0 0 0 0 0 0 0 0 0 0 0 0 0 127 0" result="hardAlpha"/>
            <feOffset/>
            <feGaussianBlur stdDeviation="3.5"/>
            <feComposite in2="hardAlpha" operator="out"/>
            <feColorMatrix type="matrix" values="0 0 0 0 0.231373 0 0 0 0 0.937255 0 0 0 0 0.972549 0 0 0 0.8 0"/>
            <feBlend mode="normal" in2="BackgroundImageFix" result="effect1_dropShadow_774_17"/>
            <feBlend mode="normal" in="SourceGraphic" in2="effect1_dropShadow_774_17" result="shape"/>
        </filter>
        <filter id="filter2_dd_774_17" x="76.9991" y="70" width="70.0478" height="56.8755" filterUnits="userSpaceOnUse" color-interpolation-filters="sRGB">
            <feFlood flood-opacity="0" result="BackgroundImageFix"/>
            <feColorMatrix in="SourceAlpha" type="matrix" values="0 0 0 0 0 0 0 0 0 0 0 0 0 0 0 0 0 0 127 0" result="hardAlpha"/>
            <feOffset/>
            <feGaussianBlur stdDeviation="2"/>
            <feComposite in2="hardAlpha" operator="out"/>
            <feColorMatrix type="matrix" values="0 0 0 0 0.913725 0 0 0 0 0.752941 0 0 0 0 0.0862745 0 0 0 0.8 0"/>
            <feBlend mode="normal" in2="BackgroundImageFix" result="effect1_dropShadow_774_17"/>
            <feColorMatrix in="SourceAlpha" type="matrix" values="0 0 0 0 0 0 0 0 0 0 0 0 0 0 0 0 0 0 127 0" result="hardAlpha"/>
            <feOffset/>
            <feGaussianBlur stdDeviation="2"/>
            <feComposite in2="hardAlpha" operator="out"/>
            <feColorMatrix type="matrix" values="0 0 0 0 0.760784 0 0 0 0 0.341176 0 0 0 0 0.313726 0 0 0 0.8 0"/>
            <feBlend mode="normal" in2="effect1_dropShadow_774_17" result="effect2_dropShadow_774_17"/>
            <feBlend mode="normal" in="SourceGraphic" in2="effect2_dropShadow_774_17" result="shape"/>
        </filter>
        <filter id="filter3_dd_774_17" x="3" y="70" width="70.0477" height="56.8755" filterUnits="userSpaceOnUse" color-interpolation-filters="sRGB">
            <feFlood flood-opacity="0" result="BackgroundImageFix"/>
            <feColorMatrix in="SourceAlpha" type="matrix" values="0 0 0 0 0 0 0 0 0 0 0 0 0 0 0 0 0 0 127 0" result="hardAlpha"/>
            <feOffset/>
            <feGaussianBlur stdDeviation="2"/>
            <feComposite in2="hardAlpha" operator="out"/>
            <feColorMatrix type="matrix" values="0 0 0 0 0.956863 0 0 0 0 0.792157 0 0 0 0 0.141176 0 0 0 0.8 0"/>
            <feBlend mode="normal" in2="BackgroundImageFix" result="effect1_dropShadow_774_17"/>
            <feColorMatrix in="SourceAlpha" type="matrix" values="0 0 0 0 0 0 0 0 0 0 0 0 0 0 0 0 0 0 127 0" result="hardAlpha"/>
            <feOffset/>
            <feGaussianBlur stdDeviation="2"/>
            <feComposite in2="hardAlpha" operator="out"/>
            <feColorMatrix type="matrix" values="0 0 0 0 0.729412 0 0 0 0 0.321569 0 0 0 0 0.301961 0 0 0 0.8 0"/>
            <feBlend mode="normal" in2="effect1_dropShadow_774_17" result="effect2_dropShadow_774_17"/>
            <feBlend mode="normal" in="SourceGraphic" in2="effect2_dropShadow_774_17" result="shape"/>
        </filter>
        <linearGradient id="paint0_linear_774_17" x1="75" y1="163" x2="75" y2="102" gradientUnits="userSpaceOnUse">
            <stop stop-color="#4880E2"/>
            <stop offset="1" stop-color="#0ECFFD"/>
        </linearGradient>
        <linearGradient id="paint1_linear_774_17" x1="144" y1="47.5" x2="6.99999" y2="47" gradientUnits="userSpaceOnUse">
            <stop stop-color="#8777B5"/>
            <stop offset="1" stop-color="#4DECF6"/>
        </linearGradient>
        <linearGradient id="paint2_linear_774_17" x1="97" y1="49" x2="72" y2="30.5" gradientUnits="userSpaceOnUse">
            <stop stop-color="#857AB7" stop-opacity="0"/>
            <stop offset="1" stop-color="#2BF1F9" stop-opacity="0.8"/>
        </linearGradient>
        <linearGradient id="paint3_linear_774_17" x1="143" y1="123" x2="90" y2="80" gradientUnits="userSpaceOnUse">
            <stop stop-color="#F1BF34"/>
            <stop offset="1" stop-color="#DD6E6B"/>
        </linearGradient>
        <linearGradient id="paint4_linear_774_17" x1="7" y1="123" x2="69" y2="74" gradientUnits="userSpaceOnUse">
            <stop stop-color="#F1BF34"/>
            <stop offset="1" stop-color="#DD6E6B"/>
        </linearGradient>
    </defs>
</svg>